# xmcd
# 
# Track frame offsets:
#     150
#     17746
#     41820
#     60196
#     89203
#     117070
#     146038
#     172114
#     198095
#     217612
#     233620
#     251418
#     269098
#     287009
#     303616
#     319397
#     334830
# 
# Disc length: 4658
# 
# Revision: 1
# Processed by: cddbd v1.5.2PL0 Copyright (c) Steve Scherf et al.
# Submitted via: fre:ac v1.0.17
# 
DISCID=fb123011
DTITLE=Robert Harris - Pompeii CD5
DYEAR=0
DGENRE=
TTITLE0=62 Hora Duodecima
TTITLE1=63 Hora Duodecima
TTITLE2=64 Hora Duodecima
TTITLE3=65 Hora Duodecima
TTITLE4=66 Hora Duodecima
TTITLE5=67 Vespera
TTITLE6=68 Vespera
TTITLE7=69 Vespera
TTITLE8=70 Vespera
TTITLE9=71 Vespera
TTITLE10=72 Vespera
TTITLE11=73 Nocte Concubia
TTITLE12=74 Nocte Concubia
TTITLE13=75 Nocte Concubia
TTITLE14=76 Nocte Concubia
TTITLE15=77 Nocte Concubia
TTITLE16=78 Nocte Concubia
EXTD=
EXTT0=
EXTT1=
EXTT2=
EXTT3=
EXTT4=
EXTT5=
EXTT6=
EXTT7=
EXTT8=
EXTT9=
EXTT10=
EXTT11=
EXTT12=
EXTT13=
EXTT14=
EXTT15=
EXTT16=
PLAYORDER=
